HIERARCHY
ROOT hip
{
	OFFSET 0.000000 0.000000 0.000000 
	CHANNELS 6 Xposition Yposition Zposition Xrotation Zrotation Yrotation
	JOINT abdomen
	{
		OFFSET 0.000000 3.402643 0.000000 
		CHANNELS 3 Xrotation Zrotation Yrotation
		JOINT chest
		{
			OFFSET 0.000000 8.438565 -0.680529 
			CHANNELS 3 Xrotation Zrotation Yrotation
			JOINT neck
			{
				OFFSET 0.000000 10.207942 -0.272212 
				CHANNELS 3 Xrotation Zrotation Yrotation
				JOINT head
				{
					OFFSET 0.000000 3.130431 0.000000 
					CHANNELS 3 Xrotation Zrotation Yrotation
					End Site
					{
						OFFSET 0.000000 3.130435 0.000000 
					}
				}
			}
			JOINT lCollar
			{
				OFFSET 3.470700 6.669187 -0.816635 
				CHANNELS 3 Yrotation Zrotation Xrotation
				JOINT lShldr
				{
					OFFSET 3.198488 0.000000 0.000000 
					CHANNELS 3 Zrotation Yrotation Xrotation
					JOINT lForeArm
					{
						OFFSET 10.139888 0.000000 0.000000 
						CHANNELS 3 Yrotation Zrotation Xrotation
						JOINT lHand
						{
							OFFSET 8.370511 0.000000 0.000000 
							CHANNELS 3 Zrotation Yrotation Xrotation
							End Site
							{
								OFFSET 4.083176 0.000000 0.000000 
							}
						}
					}
				}
			}
			JOINT rCollar
			{
				OFFSET -3.470700 6.669187 -0.816635 
				CHANNELS 3 Yrotation Zrotation Xrotation
				JOINT rShldr
				{
					OFFSET -3.198488 0.000000 0.000000 
					CHANNELS 3 Zrotation Yrotation Xrotation
					JOINT rForeArm
					{
						OFFSET -10.139888 0.000000 0.000000 
						CHANNELS 3 Yrotation Zrotation Xrotation
						JOINT rHand
						{
							OFFSET -8.370511 0.000000 0.000000 
							CHANNELS 3 Zrotation Yrotation Xrotation
							End Site
							{
								OFFSET -4.083176 0.000000 0.000000 
							}
						}
					}
				}
			}
		}
	}
	JOINT lThigh
	{
		OFFSET 5.308129 -1.633274 1.361059 
		CHANNELS 3 Xrotation Zrotation Yrotation
		JOINT lShin
		{
			OFFSET -2.041588 -20.007561 0.000000 
			CHANNELS 3 Xrotation Zrotation Yrotation
			JOINT lFoot
			{
				OFFSET 0.000000 -19.190928 -1.224953 
				CHANNELS 3 Xrotation Yrotation Zrotation
				End Site
				{
					OFFSET 0.000000 -2.449906 4.627600 
				}
			}
		}
	}
	JOINT rThigh
	{
		OFFSET -5.308129 -1.633274 1.361059 
		CHANNELS 3 Xrotation Zrotation Yrotation
		JOINT rShin
		{
			OFFSET 2.041588 -20.007561 0.000000 
			CHANNELS 3 Xrotation Zrotation Yrotation
			JOINT rFoot
			{
				OFFSET 0.000000 -19.190928 -1.224953 
				CHANNELS 3 Xrotation Yrotation Zrotation
				End Site
				{
					OFFSET 0.000000 -2.449906 4.627600 
				}
			}
		}
	}
}
MOTION
Frames: 18
Frame Time: 0.033333
39.757401 33.631031 7.466371 162.402344 -178.896484 1.484187 22.649149 -12.899888 -10.596670 15.751955 -3.769531 11.464201 7.267101 2.561855 0.155743 -5.000000 7.197265 -15.957034 2.000000 -2.000000 0.000000 -16.748049 26.601563 -19.570314 -21.436165 10.389588 -57.028297 14.420321 34.352654 -54.668213 -2.000000 2.000000 0.000000 -0.820314 112.558594 22.539063 47.536190 -64.302277 0.743147 34.543198 -24.520248 -77.613808 -56.845203 37.919155 22.119795 56.961544 22.514391 2.632315 30.484535 -17.975431 -5.142803 -37.224728 -49.330399 -17.738966 38.081009 -9.555881 0.317193 28.530180 27.652994 63.628757 
42.022114 33.427650 7.627107 162.539078 -177.685547 0.077731 22.649149 -12.899888 -10.596670 14.052733 -2.871094 11.503907 8.007695 -0.315398 -0.060925 -5.283204 7.207030 -16.103518 2.000000 -2.000000 0.000000 -20.878906 25.996092 -22.304688 -24.129446 15.853593 -62.206387 28.316685 31.396952 -48.752827 -2.000000 2.000000 0.000000 -8.046873 109.140625 17.382273 58.708023 -63.072754 -2.539934 19.371857 -15.153062 -76.525299 -51.142136 40.428589 25.224344 49.937752 20.631271 2.527969 32.449600 -20.318884 -5.420739 -48.954281 -48.572685 -16.108219 48.557819 -12.447339 0.678828 25.537941 26.534615 58.423664 
44.345337 33.233639 7.750011 162.246109 -176.357422 -0.488902 22.649149 -12.899888 -10.596670 11.699222 -2.246094 11.415633 9.184710 -1.954444 -0.188313 -5.664062 6.835937 -16.727356 2.000000 -2.000000 0.000000 -24.999998 23.603516 -24.908199 -24.757624 23.555277 -55.411755 36.897106 29.863960 -45.386776 -2.000000 2.000000 0.000000 -33.769531 103.701172 -6.513947 72.937286 -65.027786 12.829889 26.701748 -6.588311 -77.830002 -44.609238 42.177162 28.296696 42.027195 17.818399 2.245192 34.202026 -26.141865 -12.537287 -57.615685 -49.118523 -15.731590 56.251163 -12.976215 1.331326 24.382500 23.125084 53.422943 
46.603809 33.119579 7.828316 161.621094 -175.039063 -0.889516 22.649149 -12.899888 -10.596670 8.994142 -1.738281 11.279001 10.495482 -3.142895 -0.274816 -6.757812 6.376953 -17.323137 2.000000 -2.000000 0.000000 -28.837893 20.419924 -27.607422 -26.448446 31.961016 -46.632774 44.602386 28.482363 -42.412830 -2.000000 2.000000 0.000000 -79.462883 101.718750 -48.213093 86.315468 -67.335449 27.441748 30.310774 4.815320 -77.791321 -37.118546 42.933323 31.129034 33.958221 14.156263 1.844866 33.821766 -28.805777 -21.945118 -63.883984 -49.605282 -15.436466 62.436195 -13.172475 1.909164 21.480793 19.257965 48.344276 
48.668427 33.101120 7.777667 161.806656 -173.857422 -2.647529 22.649149 -12.899888 -10.596670 7.255858 -1.386719 11.171877 10.899807 -4.721014 -0.391097 -7.929688 6.259766 -17.236330 2.000000 -2.000000 0.000000 -33.857422 18.759768 -30.771484 -31.345213 40.390888 -38.362411 50.274063 26.766085 -40.796654 -2.000000 2.000000 0.000000 66.767578 74.052734 101.386345 99.202286 -68.436211 42.815384 31.467241 17.725468 -75.989532 -27.256212 43.311081 34.336452 26.616835 10.988051 1.512034 -146.374252 -150.746735 152.317596 -67.943886 -48.333202 -14.248337 68.486130 -14.000828 2.309773 15.510275 16.835711 43.735645 
50.440086 33.077522 7.604740 163.291031 -172.343750 -5.684895 22.649149 -12.899888 -10.596670 6.728518 -1.708984 11.044632 10.922191 -5.960577 -0.488329 -9.091797 6.406250 -17.031250 2.000000 -2.000000 0.000000 -39.638676 18.076172 -33.994141 -40.086552 48.733315 -28.021519 52.817368 24.762728 -41.532394 -2.000000 2.000000 0.000000 47.304688 68.193359 86.552032 110.087318 -69.255836 53.741379 31.674597 28.447840 -73.060097 -17.715342 42.675514 36.419338 23.171619 10.330669 1.579077 33.396088 -30.058502 -27.093817 -70.718063 -45.922802 -12.558903 72.685745 -14.518718 2.565918 13.208313 16.352053 42.449116 
51.928608 32.934811 7.407019 -14.716797 -9.443748 171.121902 22.649149 -12.899888 -10.596670 6.552735 -2.558594 10.868703 11.125278 -6.089007 -0.488669 -10.458986 6.103516 -18.027346 2.000000 -2.000000 0.000000 -43.730469 16.787109 -36.064453 -55.795650 55.623585 -8.231313 53.766819 23.126034 -43.110905 -2.000000 2.000000 0.000000 31.591797 60.585938 76.854210 120.339325 -70.413834 62.519363 32.725796 35.871143 -69.892403 -8.167624 41.019947 37.281822 20.375093 9.792357 1.653529 33.788082 -27.980558 -18.534437 -73.279449 -43.816643 -11.110674 76.376839 -15.458968 2.654878 12.060572 16.940271 40.593674 
53.279934 32.612679 7.228913 -13.115233 -10.556642 168.093918 22.649149 -12.899888 -10.596670 6.035156 -2.822266 10.751951 11.403224 -5.790604 -0.474522 -11.542971 5.732421 -19.042969 2.000000 -2.000000 0.000000 -47.343750 13.603516 -37.761375 -78.706528 56.946064 20.102383 54.847027 22.249172 -43.763985 -2.000000 2.000000 0.000000 22.763674 51.376953 72.341614 126.730461 -71.429718 65.519264 33.153423 40.617310 -67.077599 0.447043 39.988571 37.942810 17.486244 8.631474 1.548950 32.227516 -25.824541 -15.208736 -75.559029 -42.190823 -10.095910 80.165283 -15.527164 2.984732 11.289863 17.461199 37.053776 
54.546677 32.148842 7.079310 -11.904297 -10.761719 165.300903 22.649149 -12.899888 -10.596670 5.498047 -2.138672 10.829715 11.444865 -5.609515 -0.452527 -12.128906 5.166016 -19.902346 2.000000 -2.000000 0.000000 -49.316406 9.404297 -38.310543 -99.005272 50.416470 43.595501 53.750660 22.215830 -44.385025 -2.000000 2.000000 0.000000 17.246094 41.972660 69.674500 124.947517 -72.208801 57.989254 34.689793 44.467766 -63.639633 8.998112 40.103786 39.221821 13.929321 6.316908 1.269075 29.221661 -23.675350 -20.475292 -77.125908 -41.052242 -9.415169 84.099556 -14.442902 3.536992 10.061996 17.920364 34.039288 
55.552841 31.640842 6.922593 -10.546875 -11.367187 163.466797 22.649149 -12.899888 -10.596670 5.585939 -1.796875 10.898130 10.914907 -5.081740 -0.424618 -12.128906 4.121094 -21.298828 2.000000 -2.000000 0.000000 -49.140621 3.818360 -36.854820 -110.680428 37.950653 55.232639 51.483505 23.008404 -44.376205 -2.000000 2.000000 0.000000 12.519532 31.767578 66.968040 114.379715 -71.438774 37.230843 45.944214 46.531700 -57.992546 16.097012 39.411423 39.120602 10.556818 4.286768 1.039960 27.402203 -20.652342 -20.562723 -78.818275 -41.064392 -9.291140 87.702774 -14.413511 3.841219 9.678382 18.381805 33.309219 
56.280384 31.150482 6.736100 -8.818359 -12.412109 162.331894 22.649149 -12.899888 -10.596670 6.533205 -2.060547 10.956679 9.150877 -3.901536 -0.328024 -11.650392 2.382812 -23.027342 2.000000 -2.000000 0.000000 -48.007813 -4.580078 -34.121868 -116.551903 23.208557 59.028809 48.111698 23.530025 -44.997437 -2.000000 2.000000 0.000000 8.232422 22.333498 63.753162 102.974495 -71.130188 19.298647 57.492279 48.191517 -52.585350 20.768854 37.929253 37.775002 8.360785 3.406792 0.992792 27.322800 -16.158108 -21.177708 -80.516609 -41.425026 -9.336056 90.876747 -15.692790 3.778514 9.692484 20.865068 40.302822 
56.894802 30.701200 6.567654 -7.050781 -12.783204 161.394318 22.649149 -12.899888 -10.596670 8.447267 -1.992188 11.171535 5.980109 -2.230645 -0.186059 -10.830079 0.273437 -24.355471 2.000000 -2.000000 0.000000 -47.949219 -16.406248 -30.771481 -119.415131 8.044578 58.547905 44.197563 22.756298 -46.854664 -2.000000 2.000000 0.000000 3.476563 15.693358 58.867188 87.406464 -72.195633 1.097604 66.893570 50.266682 -46.978165 24.334322 37.304749 37.160683 7.267601 3.029743 0.945697 27.840862 -13.231472 -19.846405 -81.149147 -41.198616 -9.163157 93.375389 -16.590664 3.753708 8.956259 18.180460 35.290829 
57.403893 30.296091 6.462116 -5.595703 -12.714843 161.152344 22.649149 -12.899888 -10.596670 10.742186 -1.630859 11.474609 2.255859 0.035701 -0.025155 -9.550781 -2.304688 -25.673828 2.000000 -2.000000 0.000000 -51.835938 -30.449219 -25.390623 -120.892685 -9.157800 55.787273 43.579819 24.216747 -45.323040 -2.000000 2.000000 0.000000 -0.537109 9.423842 56.827808 63.234718 -73.383087 -23.756662 73.494621 53.091660 -39.749180 26.627687 37.509335 37.257675 6.575099 2.840906 0.985419 28.786423 -12.922330 -18.126085 -81.277702 -40.749775 -8.920063 95.541809 -17.380960 3.725048 9.211950 16.499414 35.243160 
57.752159 29.957647 6.455061 -4.648437 -12.597655 161.931458 22.649149 -12.899888 -10.596670 12.949220 -0.966797 11.796711 -1.344581 2.304967 0.155069 -7.929688 -5.019531 -27.159058 2.000000 -2.000000 0.000000 -62.128902 -43.994141 -14.733343 -120.703842 -25.758821 53.824680 45.601639 25.875076 -42.626362 -2.000000 2.000000 0.000000 -3.330078 2.998047 57.968750 34.804543 -72.196152 -52.642986 75.839256 56.492180 -31.174326 27.039236 38.105701 37.901222 6.393779 2.842268 0.997477 29.586758 -15.054737 -18.311937 -81.424721 -40.663322 -8.883298 97.178894 -18.307697 3.612559 9.632362 14.313670 36.364101 
57.928890 29.734819 6.538405 -4.082031 -12.490233 163.583984 22.649149 -12.899888 -10.596670 15.263675 -0.039063 12.167963 -4.908574 3.562459 0.241002 -6.113281 -7.441407 -27.647753 2.000000 -2.000000 0.000000 -79.707031 -56.162113 0.714544 -117.682518 -40.111504 53.938442 47.964336 26.789122 -40.414841 -2.000000 2.000000 0.000000 -4.892578 -3.525390 60.839249 12.400797 -68.194832 -74.893738 70.271690 61.230419 -24.499222 25.250734 38.749027 38.610397 7.162617 3.485841 1.045503 30.275227 -18.588223 -19.966970 -81.402435 -41.178635 -9.166658 98.302048 -19.333019 3.492401 9.615439 13.098859 39.953331 
57.967560 29.651413 6.736305 -4.521484 -12.158203 165.566406 22.649149 -12.899888 -10.596670 16.953125 1.552734 12.617451 -8.019330 3.023538 0.203979 -4.589845 -9.121094 -24.736330 2.000000 -2.000000 0.000000 -107.128906 -63.984371 23.378904 -109.707848 -51.563965 57.798187 50.948349 26.709137 -38.694977 -2.000000 2.000000 0.000000 -6.259766 -9.462891 63.076176 -2.080694 -62.711342 -88.530556 62.976658 64.905991 -23.619429 20.747278 39.666275 39.594734 9.337793 4.958787 1.250151 30.997526 -22.957150 -21.197577 -81.367439 -41.816662 -9.506351 98.744621 -19.694635 3.442958 9.058234 12.637425 44.118816 
57.879326 29.629023 7.150895 -7.167968 -11.699219 166.960907 22.649149 -12.899888 -10.596670 16.386721 3.730469 13.057136 -9.873348 0.487740 0.024974 -4.316407 -9.765624 -16.142580 2.000000 -2.000000 0.000000 -134.667969 -65.244141 46.230473 -95.876617 -61.480541 68.910217 49.649521 25.261093 -41.041889 -2.000000 2.000000 0.000000 -6.669921 -13.603515 64.255516 -9.603842 -57.561363 -96.958633 58.275509 65.264687 -27.457508 13.286052 41.491787 41.058407 13.392556 6.639306 1.370339 31.407427 -27.708361 -22.632315 -82.770462 -41.071903 -8.984838 98.266113 -18.630766 3.622785 8.471697 12.695982 48.324413 
57.631271 29.755762 7.456063 -8.750000 -11.269531 168.435226 22.649149 -12.899888 -10.596670 16.621096 5.732422 13.526365 -11.052407 -3.707860 -0.288159 -4.882813 -9.814453 -4.130860 2.000000 -2.000000 0.000000 -158.291016 -60.058598 51.309898 -46.450863 -79.318367 120.638695 41.145817 23.865232 -46.621521 -2.000000 2.000000 0.000000 -5.712891 -17.148438 64.645561 -16.167906 -52.945652 -103.484039 52.257885 64.205734 -34.388489 6.071942 42.947609 41.688263 17.815325 8.366941 1.485759 31.474178 -32.863091 -25.407438 -82.853767 -41.038940 -8.974751 97.228233 -18.219795 3.667318 8.103749 12.693697 50.821213 
